<?xml version="1.0" encoding="UTF-8" standalone="no"?>
<svg
   version="1.1"
   width="256"
   height="256"
   viewBox="0 0 256 256"
   xml:space="preserve"
   id="svg1"
   sodipodi:docname="ecotube-icon3.svg"
   inkscape:version="1.4 (e7c3feb, 2024-10-09)"
   xmlns:inkscape="http://www.inkscape.org/namespaces/inkscape"
   xmlns:sodipodi="http://sodipodi.sourceforge.net/DTD/sodipodi-0.dtd"
   xmlns:xlink="http://www.w3.org/1999/xlink"
   xmlns="http://www.w3.org/2000/svg"
   xmlns:svg="http://www.w3.org/2000/svg"><sodipodi:namedview
   id="namedview1"
   pagecolor="#505050"
   bordercolor="#ffffff"
   borderopacity="1"
   inkscape:showpageshadow="0"
   inkscape:pageopacity="0"
   inkscape:pagecheckerboard="1"
   inkscape:deskcolor="#d1d1d1"
   inkscape:zoom="1.41"
   inkscape:cx="196.09929"
   inkscape:cy="130.85106"
   inkscape:window-width="1366"
   inkscape:window-height="700"
   inkscape:window-x="0"
   inkscape:window-y="32"
   inkscape:window-maximized="1"
   inkscape:current-layer="svg1" />

<defs
   id="defs1"><linearGradient
   id="linearGradient1"
   inkscape:collect="always"><stop
     style="stop-color:#00fb76;stop-opacity:1;"
     offset="0"
     id="stop1" /><stop
     style="stop-color:#009bb4;stop-opacity:1;"
     offset="1"
     id="stop2" /></linearGradient>
<linearGradient
   id="SVGID_3"
   gradientUnits="userSpaceOnUse"
   x1="24.1901"
   y1="73.344704"
   x2="75.489799"
   y2="19.469299"
   gradientTransform="translate(109.98723,-56.788498)">
<stop
   offset="0"
   style="stop-color:#00a0de;stop-opacity:1;"
   id="stop4" />
<stop
   offset="0.26998654"
   style="stop-color:#ffa1a1;stop-opacity:1;"
   id="stop5" />
<stop
   offset="1"
   style="stop-color:#ffffff;stop-opacity:1;"
   id="stop6" />
</linearGradient><linearGradient
   inkscape:collect="always"
   xlink:href="#linearGradient1"
   id="linearGradient2"
   x1="1.6357507"
   y1="11.038198"
   x2="87.681686"
   y2="78.687912"
   gradientUnits="userSpaceOnUse"
   gradientTransform="matrix(0.99645234,0,0,0.9918668,0.21117672,-0.29471506)" /><linearGradient
   id="d"
   x1="1643.1"
   x2="1643.1"
   y1="1003"
   y2="2366.7"
   gradientTransform="matrix(0.01679715,0,0,0.01679715,18.096508,17.908291)"
   gradientUnits="userSpaceOnUse"><stop
     offset="0"
     stop-color="#fff"
     id="stop1-7" /><stop
     offset="1"
     stop-color="#ffd4cc"
     id="stop2-0"
     style="stop-color:#ffd4cc;stop-opacity:1;" /></linearGradient><filter
   id="c"
   width="1.2161889"
   height="1.2161889"
   x="-0.10809446"
   y="-0.10809446"
   color-interpolation-filters="sRGB"><feGaussianBlur
     stdDeviation=".429"
     id="feGaussianBlur4" /></filter><filter
   id="a"
   width="1.07776"
   height="1.07776"
   x="-0.03888"
   y="-0.03888"
   color-interpolation-filters="sRGB"><feGaussianBlur
     stdDeviation=".972"
     id="feGaussianBlur5" /></filter></defs>
<g
   style="opacity:1;fill:none;fill-rule:nonzero;stroke:none;stroke-width:0;stroke-linecap:butt;stroke-linejoin:miter;stroke-miterlimit:10;stroke-dasharray:none"
   transform="matrix(2.5200793,0,0,2.5200793,14.467818,16.261509)"
   id="g1">
	
	<path
   d="M 87.687735,8.752102 H 46.688704 39.425563 2.4153293 c -1.2166683,0 -2.20415258,0.98294 -2.20415258,2.195001 V 32.316874 77.73247 c 0,1.212062 0.98748428,2.194009 2.20415258,2.194009 h 37.0092367 7.263141 40.999032 c 1.217665,0 2.204153,-0.982939 2.204153,-2.194009 V 32.316874 10.947103 C 89.891888,9.735042 88.904404,8.752102 87.687735,8.752102 Z M 41.456332,14.14389 c 0,-0.624876 0.509188,-1.13172 1.136953,-1.13172 h 4.095419 1.01937 c 0.627765,0 1.136953,0.506844 1.136953,1.13172 v 5.091252 c 0,0.624876 -0.509188,1.13172 -1.136953,1.13172 h -1.01937 -4.095419 c -0.627765,0 -1.136953,-0.506844 -1.136953,-1.13172 z m -12.180633,0 c 0,-0.624876 0.509187,-1.13172 1.136952,-1.13172 h 5.11479 c 0.627765,0 1.136952,0.506844 1.136952,1.13172 v 5.091252 c 0,0.624876 -0.509187,1.13172 -1.136952,1.13172 h -5.11479 c -0.627765,0 -1.136952,-0.506844 -1.136952,-1.13172 z M 12.696725,74.534691 c 0,0.624876 -0.509187,1.131721 -1.136952,1.131721 H 6.4449826 c -0.627765,0 -1.1369522,-0.506845 -1.1369522,-1.131721 V 69.44344 c 0,-0.624876 0.5091872,-1.131721 1.1369522,-1.131721 h 5.1147904 c 0.627765,0 1.136952,0.506845 1.136952,1.131721 z m 0,-55.299549 c 0,0.624876 -0.509187,1.13172 -1.136952,1.13172 H 6.4449826 c -0.627765,0 -1.1369522,-0.506844 -1.1369522,-1.13172 V 14.14389 c 0,-0.624876 0.5091872,-1.13172 1.1369522,-1.13172 h 5.1147904 c 0.627765,0 1.136952,0.506844 1.136952,1.13172 z m 11.983336,55.299549 c 0,0.624876 -0.509187,1.131721 -1.136952,1.131721 h -5.11479 c -0.627765,0 -1.136952,-0.506845 -1.136952,-1.131721 V 69.44344 c 0,-0.624876 0.509187,-1.131721 1.136952,-1.131721 h 5.11479 c 0.627765,0 1.136952,0.506845 1.136952,1.131721 z m 0,-55.299549 c 0,0.624876 -0.509187,1.13172 -1.136952,1.13172 h -5.11479 c -0.627765,0 -1.136952,-0.506844 -1.136952,-1.13172 V 14.14389 c 0,-0.624876 0.509187,-1.13172 1.136952,-1.13172 h 5.11479 c 0.627765,0 1.136952,0.506844 1.136952,1.13172 z m 11.983336,55.299549 c 0,0.624876 -0.509187,1.131721 -1.136952,1.131721 h -5.11479 c -0.627765,0 -1.136952,-0.506845 -1.136952,-1.131721 V 69.44344 c 0,-0.624876 0.509187,-1.131721 1.136952,-1.131721 h 5.11479 c 0.627765,0 1.136952,0.506845 1.136952,1.131721 z m 12.180633,0 c 0,0.624876 -0.509187,1.131721 -1.136952,1.131721 h -1.019371 -4.095419 c -0.627765,0 -1.136952,-0.506845 -1.136952,-1.131721 V 69.44344 c 0,-0.624876 0.509187,-1.131721 1.136952,-1.131721 h 4.095419 1.019371 c 0.627765,0 1.136952,0.506845 1.136952,1.131721 z m 11.983336,0 c 0,0.624876 -0.509187,1.131721 -1.136952,1.131721 h -5.11479 c -0.627765,0 -1.136952,-0.506845 -1.136952,-1.131721 V 69.44344 c 0,-0.624876 0.509187,-1.131721 1.136952,-1.131721 h 5.11479 c 0.627765,0 1.136952,0.506845 1.136952,1.131721 z m 0,-55.299549 c 0,0.624876 -0.509187,1.13172 -1.136952,1.13172 h -5.11479 c -0.627765,0 -1.136952,-0.506844 -1.136952,-1.13172 V 14.14389 c 0,-0.624876 0.509187,-1.13172 1.136952,-1.13172 h 5.11479 c 0.627765,0 1.136952,0.506844 1.136952,1.13172 z m 11.984332,55.299549 c 0,0.624876 -0.509187,1.131721 -1.136952,1.131721 h -5.11479 c -0.627765,0 -1.136952,-0.506845 -1.136952,-1.131721 V 69.44344 c 0,-0.624876 0.509187,-1.131721 1.136952,-1.131721 h 5.11479 c 0.627765,0 1.136952,0.506845 1.136952,1.131721 z m 0,-55.299549 c 0,0.624876 -0.509187,1.13172 -1.136952,1.13172 h -5.11479 c -0.627765,0 -1.136952,-0.506844 -1.136952,-1.13172 V 14.14389 c 0,-0.624876 0.509187,-1.13172 1.136952,-1.13172 h 5.11479 c 0.627765,0 1.136952,0.506844 1.136952,1.13172 z m 11.983336,55.299549 c 0,0.624876 -0.509187,1.131721 -1.136952,1.131721 h -5.11479 c -0.627765,0 -1.136952,-0.506845 -1.136952,-1.131721 V 69.44344 c 0,-0.624876 0.509187,-1.131721 1.136952,-1.131721 h 5.11479 c 0.627765,0 1.136952,0.506845 1.136952,1.131721 z m 0,-55.299549 c 0,0.624876 -0.509187,1.13172 -1.136952,1.13172 h -5.11479 c -0.627765,0 -1.136952,-0.506844 -1.136952,-1.13172 V 14.14389 c 0,-0.624876 0.509187,-1.13172 1.136952,-1.13172 h 5.11479 c 0.627765,0 1.136952,0.506844 1.136952,1.13172 z"
   style="display:inline;opacity:1;fill:url(#linearGradient2);fill-rule:nonzero;stroke:none;stroke-width:0.994157;stroke-linecap:butt;stroke-linejoin:miter;stroke-miterlimit:10;stroke-dasharray:none"
   stroke-linecap="round"
   id="path1"
   sodipodi:nodetypes="sccsscssccssccssscsssscsssssssssssssssssssssssssssssscssssssscsssssssssssssssssssssscsssscsssssssssssssssssssssssssssssssssssssssssssssssssssssss" />
<path
   fill="url(#d)"
   d="m 45.688041,30.104415 c -8.225587,0.04113 -14.871983,6.720927 -14.871882,14.946618 -10e-7,8.254789 6.691827,14.946619 14.946618,14.94662 8.25479,10e-7 14.946621,-6.69183 14.94662,-14.94662 -1e-6,-8.254791 -6.691831,-14.946619 -14.94662,-14.946618 z"
   id="path7-9"
   style="display:inline;opacity:1;fill:#494949;fill-opacity:0.34;fill-rule:nonzero;stroke:none;stroke-width:0;stroke-linecap:butt;stroke-linejoin:miter;stroke-miterlimit:10;stroke-dasharray:none"
   sodipodi:nodetypes="ccsssc" /><path
   fill="url(#d)"
   d="M 44.979857,30.816159 A 14.234875,14.234875 0 0 0 30.816159,45.051033 14.234875,14.234875 0 0 0 45.051033,59.28591 14.234875,14.234875 0 0 0 59.28591,45.051033 14.234875,14.234875 0 0 0 45.051033,30.816159 Z m -3.297744,6.848559 q 0.412813,0.02134 0.772639,0.272043 l 8.867535,6.110716 q 0.419137,0.295769 0.580466,0.776591 a 1.5025702,1.5025702 0 0 1 0,0.968762 1.5025702,1.5025702 0 0 1 -0.583628,0.773427 l -8.865166,6.110716 A 1.4867536,1.4867536 0 0 1 41.40137,52.936365 Q 40.826438,52.865175 40.4421,52.431028 C 40.057758,51.996863 40.054592,51.8039 40.054592,51.416396 V 39.198918 q 7.92e-4,-0.582046 0.387508,-1.017 a 1.4867536,1.4867536 0 0 1 0.95927,-0.505338 q 0.143127,-0.01821 0.280743,-0.01017 z"
   id="path7"
   style="display:inline;fill:#ffffff;stroke-width:0" /></g>
</svg>
